<mxfile host="Electron" modified="2024-09-08T03:26:08.126Z" agent="Mozilla/5.0 (Windows NT 10.0; Win64; x64) AppleWebKit/537.36 (KHTML, like Gecko) draw.io/24.5.1 Chrome/124.0.6367.207 Electron/30.0.6 Safari/537.36" etag="-A-19-hplGISK4G0d3Fg" version="24.5.1" type="device" pages="2">
  <diagram name="BlockDiagram" id="fOtQE6DegbHTtSlUFle6">
    <mxGraphModel dx="2736" dy="1129" grid="1" gridSize="10" guides="1" tooltips="1" connect="1" arrows="1" fold="1" page="1" pageScale="1" pageWidth="827" pageHeight="1169" math="0" shadow="0">
      <root>
        <mxCell id="0" />
        <mxCell id="1" parent="0" />
        <mxCell id="v0cqLz6qlgyinotiR4zR-2" value="" style="rounded=1;whiteSpace=wrap;html=1;strokeColor=default;fillColor=none;strokeWidth=5;" vertex="1" parent="1">
          <mxGeometry x="-590" y="80" width="1510" height="850" as="geometry" />
        </mxCell>
        <mxCell id="VyZwU9iUYU2pjvRIfm-g-61" value="" style="rounded=1;whiteSpace=wrap;html=1;fillColor=none;strokeWidth=5;" vertex="1" parent="1">
          <mxGeometry x="1260" y="85" width="1040" height="840" as="geometry" />
        </mxCell>
        <mxCell id="VyZwU9iUYU2pjvRIfm-g-1" value="&lt;font style=&quot;font-size: 36px;&quot;&gt;CONTROL&lt;/font&gt;" style="rounded=0;whiteSpace=wrap;html=1;strokeWidth=3;" vertex="1" parent="1">
          <mxGeometry x="-120" y="210" width="950" height="80" as="geometry" />
        </mxCell>
        <mxCell id="VyZwU9iUYU2pjvRIfm-g-2" value="&lt;span style=&quot;font-size: 18px;&quot;&gt;CHIP&lt;br&gt;SELECTOR&lt;/span&gt;" style="rounded=0;whiteSpace=wrap;html=1;strokeWidth=3;" vertex="1" parent="1">
          <mxGeometry x="-120" y="480" width="120" height="80" as="geometry" />
        </mxCell>
        <mxCell id="VyZwU9iUYU2pjvRIfm-g-4" value="&lt;font style=&quot;font-size: 18px;&quot;&gt;COUNTER&lt;/font&gt;&lt;div&gt;&lt;font style=&quot;font-size: 18px;&quot;&gt;&lt;i&gt;SCLK_GEN&lt;/i&gt;&lt;/font&gt;&lt;/div&gt;" style="rounded=0;whiteSpace=wrap;html=1;strokeWidth=3;" vertex="1" parent="1">
          <mxGeometry x="-120" y="360" width="120" height="80" as="geometry" />
        </mxCell>
        <mxCell id="VyZwU9iUYU2pjvRIfm-g-25" value="&lt;font style=&quot;font-size: 18px;&quot;&gt;RX_DATA&lt;/font&gt;" style="edgeStyle=orthogonalEdgeStyle;rounded=0;orthogonalLoop=1;jettySize=auto;html=1;strokeWidth=3;" edge="1" parent="1" source="VyZwU9iUYU2pjvRIfm-g-5" target="VyZwU9iUYU2pjvRIfm-g-6">
          <mxGeometry relative="1" as="geometry" />
        </mxCell>
        <mxCell id="VyZwU9iUYU2pjvRIfm-g-36" value="&lt;font style=&quot;font-size: 18px;&quot;&gt;CMD_SET&lt;/font&gt;&lt;div&gt;&lt;font style=&quot;font-size: 18px;&quot;&gt;RX_DATA_VALID&lt;/font&gt;&lt;/div&gt;" style="edgeStyle=orthogonalEdgeStyle;rounded=0;orthogonalLoop=1;jettySize=auto;html=1;exitX=0.75;exitY=0;exitDx=0;exitDy=0;align=left;strokeWidth=3;entryX=0.565;entryY=0.98;entryDx=0;entryDy=0;entryPerimeter=0;" edge="1" parent="1" source="VyZwU9iUYU2pjvRIfm-g-5" target="VyZwU9iUYU2pjvRIfm-g-1">
          <mxGeometry x="-0.4576" relative="1" as="geometry">
            <mxPoint x="400" y="290" as="targetPoint" />
            <Array as="points">
              <mxPoint x="120" y="520" />
              <mxPoint x="417" y="520" />
            </Array>
            <mxPoint as="offset" />
          </mxGeometry>
        </mxCell>
        <mxCell id="VyZwU9iUYU2pjvRIfm-g-5" value="&lt;font style=&quot;font-size: 36px;&quot;&gt;DATA_TX&lt;/font&gt;" style="rounded=0;whiteSpace=wrap;html=1;strokeWidth=3;" vertex="1" parent="1">
          <mxGeometry x="-120" y="600" width="320" height="160" as="geometry" />
        </mxCell>
        <mxCell id="VyZwU9iUYU2pjvRIfm-g-26" value="&lt;font style=&quot;font-size: 18px;&quot;&gt;RX_DATA_MULTI_BYTES&lt;/font&gt;" style="edgeStyle=orthogonalEdgeStyle;rounded=0;orthogonalLoop=1;jettySize=auto;html=1;strokeWidth=3;" edge="1" parent="1" source="VyZwU9iUYU2pjvRIfm-g-6">
          <mxGeometry relative="1" as="geometry">
            <mxPoint x="420" y="840" as="targetPoint" />
          </mxGeometry>
        </mxCell>
        <mxCell id="VyZwU9iUYU2pjvRIfm-g-6" value="&lt;font style=&quot;font-size: 24px;&quot;&gt;DATA_SHIFT&lt;/font&gt;" style="rounded=0;whiteSpace=wrap;html=1;strokeWidth=3;" vertex="1" parent="1">
          <mxGeometry x="320" y="600" width="200" height="160" as="geometry" />
        </mxCell>
        <mxCell id="VyZwU9iUYU2pjvRIfm-g-8" value="&lt;font style=&quot;font-size: 36px;&quot;&gt;AXI&lt;/font&gt;" style="shape=flexArrow;endArrow=classic;startArrow=classic;html=1;rounded=0;strokeWidth=3;width=57.77777777777778;startSize=19.58888888888889;" edge="1" parent="1">
          <mxGeometry width="100" height="100" relative="1" as="geometry">
            <mxPoint x="-123" y="870" as="sourcePoint" />
            <mxPoint x="827" y="870" as="targetPoint" />
          </mxGeometry>
        </mxCell>
        <mxCell id="VyZwU9iUYU2pjvRIfm-g-15" value="&lt;font style=&quot;font-size: 18px;&quot;&gt;CMD&lt;/font&gt;" style="endArrow=classic;html=1;rounded=0;entryX=0.25;entryY=1;entryDx=0;entryDy=0;strokeWidth=3;" edge="1" parent="1">
          <mxGeometry width="50" height="50" relative="1" as="geometry">
            <mxPoint x="-90.00000000000003" y="840" as="sourcePoint" />
            <mxPoint x="-90.00000000000003" y="760" as="targetPoint" />
          </mxGeometry>
        </mxCell>
        <mxCell id="VyZwU9iUYU2pjvRIfm-g-16" value="&lt;font style=&quot;font-size: 18px;&quot;&gt;PARAM 1 ~ 4&lt;/font&gt;" style="endArrow=classic;html=1;rounded=0;entryX=0.25;entryY=1;entryDx=0;entryDy=0;strokeWidth=3;" edge="1" parent="1">
          <mxGeometry width="50" height="50" relative="1" as="geometry">
            <mxPoint x="150" y="840" as="sourcePoint" />
            <mxPoint x="150" y="760" as="targetPoint" />
          </mxGeometry>
        </mxCell>
        <mxCell id="VyZwU9iUYU2pjvRIfm-g-17" value="&lt;font style=&quot;font-size: 36px;&quot;&gt;Pmod JSTK2&lt;/font&gt;" style="rounded=1;whiteSpace=wrap;html=1;strokeWidth=3;" vertex="1" parent="1">
          <mxGeometry x="-520" y="200" width="280" height="680" as="geometry" />
        </mxCell>
        <mxCell id="VyZwU9iUYU2pjvRIfm-g-18" value="&lt;font style=&quot;font-size: 18px;&quot;&gt;CS&lt;/font&gt;" style="edgeStyle=orthogonalEdgeStyle;rounded=0;orthogonalLoop=1;jettySize=auto;html=1;exitX=0;exitY=0.5;exitDx=0;exitDy=0;strokeWidth=3;" edge="1" parent="1" source="VyZwU9iUYU2pjvRIfm-g-2">
          <mxGeometry relative="1" as="geometry">
            <mxPoint x="-241" y="520" as="targetPoint" />
            <Array as="points">
              <mxPoint x="-235" y="520" />
              <mxPoint x="-235" y="521" />
            </Array>
          </mxGeometry>
        </mxCell>
        <mxCell id="VyZwU9iUYU2pjvRIfm-g-20" value="&lt;font style=&quot;font-size: 18px;&quot;&gt;MOSI&lt;/font&gt;" style="edgeStyle=orthogonalEdgeStyle;rounded=0;orthogonalLoop=1;jettySize=auto;html=1;exitX=0;exitY=0.25;exitDx=0;exitDy=0;strokeWidth=3;" edge="1" parent="1" source="VyZwU9iUYU2pjvRIfm-g-5">
          <mxGeometry relative="1" as="geometry">
            <mxPoint x="-237" y="640" as="targetPoint" />
          </mxGeometry>
        </mxCell>
        <mxCell id="VyZwU9iUYU2pjvRIfm-g-21" value="&lt;font style=&quot;font-size: 18px;&quot;&gt;MISO&lt;/font&gt;" style="edgeStyle=orthogonalEdgeStyle;rounded=0;orthogonalLoop=1;jettySize=auto;html=1;exitX=0;exitY=0.75;exitDx=0;exitDy=0;entryX=0;entryY=0.75;entryDx=0;entryDy=0;strokeWidth=3;" edge="1" parent="1" target="VyZwU9iUYU2pjvRIfm-g-5">
          <mxGeometry relative="1" as="geometry">
            <mxPoint x="-240" y="720" as="sourcePoint" />
          </mxGeometry>
        </mxCell>
        <mxCell id="VyZwU9iUYU2pjvRIfm-g-22" value="&lt;font style=&quot;font-size: 18px;&quot;&gt;SCLK&lt;/font&gt;" style="edgeStyle=orthogonalEdgeStyle;rounded=0;orthogonalLoop=1;jettySize=auto;html=1;exitX=0;exitY=0.5;exitDx=0;exitDy=0;strokeWidth=3;" edge="1" parent="1" source="VyZwU9iUYU2pjvRIfm-g-4">
          <mxGeometry x="-0.0125" relative="1" as="geometry">
            <mxPoint x="-241" y="400" as="targetPoint" />
            <mxPoint as="offset" />
          </mxGeometry>
        </mxCell>
        <mxCell id="VyZwU9iUYU2pjvRIfm-g-23" value="&lt;font style=&quot;font-size: 18px;&quot;&gt;CMD_SET&lt;/font&gt;" style="endArrow=classic;html=1;rounded=0;exitX=0.34;exitY=1.005;exitDx=0;exitDy=0;exitPerimeter=0;strokeWidth=3;" edge="1" parent="1">
          <mxGeometry width="50" height="50" relative="1" as="geometry">
            <mxPoint x="30.00000000000018" y="760" as="sourcePoint" />
            <mxPoint x="30.2" y="839.2" as="targetPoint" />
          </mxGeometry>
        </mxCell>
        <mxCell id="VyZwU9iUYU2pjvRIfm-g-29" value="&lt;font style=&quot;font-size: 18px;&quot;&gt;COUNTER&lt;/font&gt;&lt;div&gt;&lt;span style=&quot;font-size: 18px;&quot;&gt;&lt;i&gt;WAIT_15_US&lt;/i&gt;&lt;/span&gt;&lt;/div&gt;" style="rounded=0;whiteSpace=wrap;html=1;strokeWidth=3;" vertex="1" parent="1">
          <mxGeometry x="120" y="360" width="120" height="80" as="geometry" />
        </mxCell>
        <mxCell id="VyZwU9iUYU2pjvRIfm-g-30" value="&lt;font style=&quot;font-size: 18px;&quot;&gt;COUNTER&lt;/font&gt;&lt;div&gt;&lt;font style=&quot;font-size: 18px;&quot;&gt;&lt;i&gt;WAIT_25_US&lt;/i&gt;&lt;/font&gt;&lt;/div&gt;" style="rounded=0;whiteSpace=wrap;html=1;strokeWidth=3;" vertex="1" parent="1">
          <mxGeometry x="280" y="360" width="120" height="80" as="geometry" />
        </mxCell>
        <mxCell id="VyZwU9iUYU2pjvRIfm-g-31" value="ENABLE" style="endArrow=classic;html=1;rounded=0;entryX=0.5;entryY=0;entryDx=0;entryDy=0;strokeWidth=3;" edge="1" parent="1" target="VyZwU9iUYU2pjvRIfm-g-4">
          <mxGeometry width="50" height="50" relative="1" as="geometry">
            <mxPoint x="-60" y="290" as="sourcePoint" />
            <mxPoint x="120" y="340" as="targetPoint" />
          </mxGeometry>
        </mxCell>
        <mxCell id="VyZwU9iUYU2pjvRIfm-g-32" value="ENABLE" style="endArrow=classic;html=1;rounded=0;exitX=0.2;exitY=1;exitDx=0;exitDy=0;entryX=0.5;entryY=0;entryDx=0;entryDy=0;exitPerimeter=0;strokeWidth=3;" edge="1" parent="1">
          <mxGeometry width="50" height="50" relative="1" as="geometry">
            <mxPoint x="150" y="290" as="sourcePoint" />
            <mxPoint x="150" y="360" as="targetPoint" />
          </mxGeometry>
        </mxCell>
        <mxCell id="VyZwU9iUYU2pjvRIfm-g-33" value="ENABLE" style="endArrow=classic;html=1;rounded=0;exitX=0.369;exitY=1.009;exitDx=0;exitDy=0;exitPerimeter=0;entryX=0.5;entryY=0;entryDx=0;entryDy=0;strokeWidth=3;" edge="1" parent="1">
          <mxGeometry width="50" height="50" relative="1" as="geometry">
            <mxPoint x="310.5500000000002" y="290.72" as="sourcePoint" />
            <mxPoint x="310" y="360" as="targetPoint" />
          </mxGeometry>
        </mxCell>
        <mxCell id="VyZwU9iUYU2pjvRIfm-g-34" value="DONE" style="endArrow=classic;html=1;rounded=0;exitX=0.079;exitY=1.005;exitDx=0;exitDy=0;exitPerimeter=0;entryX=0.263;entryY=1.005;entryDx=0;entryDy=0;entryPerimeter=0;strokeWidth=3;" edge="1" parent="1">
          <mxGeometry width="50" height="50" relative="1" as="geometry">
            <mxPoint x="210" y="360" as="sourcePoint" />
            <mxPoint x="209.8499999999999" y="290.4" as="targetPoint" />
          </mxGeometry>
        </mxCell>
        <mxCell id="VyZwU9iUYU2pjvRIfm-g-35" value="DONE" style="endArrow=classic;html=1;rounded=0;exitX=0.079;exitY=1.005;exitDx=0;exitDy=0;exitPerimeter=0;strokeWidth=3;" edge="1" parent="1">
          <mxGeometry width="50" height="50" relative="1" as="geometry">
            <mxPoint x="370" y="360" as="sourcePoint" />
            <mxPoint x="370" y="290" as="targetPoint" />
          </mxGeometry>
        </mxCell>
        <mxCell id="VyZwU9iUYU2pjvRIfm-g-37" value="&lt;font style=&quot;font-size: 18px;&quot;&gt;MULTI_BYTES_VALID&lt;/font&gt;" style="edgeStyle=orthogonalEdgeStyle;rounded=0;orthogonalLoop=1;jettySize=auto;html=1;exitX=0.5;exitY=0;exitDx=0;exitDy=0;strokeWidth=3;" edge="1" parent="1" source="VyZwU9iUYU2pjvRIfm-g-6">
          <mxGeometry x="-0.4204" y="40" relative="1" as="geometry">
            <mxPoint x="595" y="290" as="targetPoint" />
            <Array as="points">
              <mxPoint x="420" y="560" />
              <mxPoint x="595" y="560" />
            </Array>
            <mxPoint as="offset" />
          </mxGeometry>
        </mxCell>
        <mxCell id="VyZwU9iUYU2pjvRIfm-g-38" value="&lt;font style=&quot;font-size: 18px;&quot;&gt;FETCH&lt;/font&gt;" style="endArrow=classic;html=1;rounded=0;strokeWidth=3;" edge="1" parent="1">
          <mxGeometry x="-0.8545" width="50" height="50" relative="1" as="geometry">
            <mxPoint x="680" y="840" as="sourcePoint" />
            <mxPoint x="680" y="290" as="targetPoint" />
            <mxPoint as="offset" />
          </mxGeometry>
        </mxCell>
        <mxCell id="VyZwU9iUYU2pjvRIfm-g-39" value="" style="endArrow=classic;html=1;rounded=0;entryX=1;entryY=0.5;entryDx=0;entryDy=0;strokeWidth=3;" edge="1" parent="1" target="VyZwU9iUYU2pjvRIfm-g-6">
          <mxGeometry width="50" height="50" relative="1" as="geometry">
            <mxPoint x="680" y="680" as="sourcePoint" />
            <mxPoint x="590" y="520" as="targetPoint" />
          </mxGeometry>
        </mxCell>
        <mxCell id="VyZwU9iUYU2pjvRIfm-g-40" value="&lt;font style=&quot;font-size: 18px;&quot;&gt;DONE&lt;/font&gt;" style="endArrow=classic;html=1;rounded=0;exitX=0.928;exitY=1.005;exitDx=0;exitDy=0;exitPerimeter=0;strokeWidth=3;" edge="1" parent="1" source="VyZwU9iUYU2pjvRIfm-g-1">
          <mxGeometry x="0.8544" width="50" height="50" relative="1" as="geometry">
            <mxPoint x="730" y="530" as="sourcePoint" />
            <mxPoint x="762" y="840" as="targetPoint" />
            <mxPoint as="offset" />
          </mxGeometry>
        </mxCell>
        <mxCell id="VyZwU9iUYU2pjvRIfm-g-50" value="&lt;font style=&quot;font-size: 18px;&quot;&gt;CMD_SET&lt;/font&gt;" style="edgeStyle=orthogonalEdgeStyle;rounded=0;orthogonalLoop=1;jettySize=auto;html=1;strokeWidth=3;" edge="1" parent="1" source="VyZwU9iUYU2pjvRIfm-g-43" target="VyZwU9iUYU2pjvRIfm-g-44">
          <mxGeometry relative="1" as="geometry" />
        </mxCell>
        <mxCell id="VyZwU9iUYU2pjvRIfm-g-43" value="&lt;font style=&quot;font-size: 24px;&quot;&gt;IDLE&lt;/font&gt;" style="ellipse;whiteSpace=wrap;html=1;aspect=fixed;strokeWidth=3;" vertex="1" parent="1">
          <mxGeometry x="1880" y="125" width="120" height="120" as="geometry" />
        </mxCell>
        <mxCell id="VyZwU9iUYU2pjvRIfm-g-51" value="&lt;font style=&quot;font-size: 18px;&quot;&gt;CS_LOW_SET&lt;/font&gt;" style="edgeStyle=orthogonalEdgeStyle;rounded=0;orthogonalLoop=1;jettySize=auto;html=1;entryX=0.5;entryY=0;entryDx=0;entryDy=0;strokeWidth=3;" edge="1" parent="1" source="VyZwU9iUYU2pjvRIfm-g-44" target="VyZwU9iUYU2pjvRIfm-g-45">
          <mxGeometry relative="1" as="geometry">
            <Array as="points" />
          </mxGeometry>
        </mxCell>
        <mxCell id="VyZwU9iUYU2pjvRIfm-g-44" value="&lt;font style=&quot;font-size: 24px;&quot;&gt;CS_LOW&lt;/font&gt;" style="ellipse;whiteSpace=wrap;html=1;aspect=fixed;strokeWidth=3;" vertex="1" parent="1">
          <mxGeometry x="1880" y="325" width="120" height="120" as="geometry" />
        </mxCell>
        <mxCell id="VyZwU9iUYU2pjvRIfm-g-53" value="&lt;span style=&quot;font-size: 18px;&quot;&gt;MULTI_BYTES_VALID&lt;/span&gt;" style="edgeStyle=orthogonalEdgeStyle;rounded=0;orthogonalLoop=1;jettySize=auto;html=1;entryX=0.438;entryY=0;entryDx=0;entryDy=0;entryPerimeter=0;strokeWidth=3;" edge="1" parent="1" source="VyZwU9iUYU2pjvRIfm-g-45" target="VyZwU9iUYU2pjvRIfm-g-47">
          <mxGeometry x="0.7054" relative="1" as="geometry">
            <Array as="points">
              <mxPoint x="1653" y="585" />
            </Array>
            <mxPoint as="offset" />
          </mxGeometry>
        </mxCell>
        <mxCell id="VyZwU9iUYU2pjvRIfm-g-56" value="&lt;font style=&quot;font-size: 18px;&quot;&gt;WAIT_15_US_DONE&lt;/font&gt;" style="edgeStyle=orthogonalEdgeStyle;rounded=0;orthogonalLoop=1;jettySize=auto;html=1;entryX=1;entryY=0.5;entryDx=0;entryDy=0;strokeWidth=3;" edge="1" parent="1" source="VyZwU9iUYU2pjvRIfm-g-45" target="VyZwU9iUYU2pjvRIfm-g-46">
          <mxGeometry relative="1" as="geometry">
            <Array as="points">
              <mxPoint x="2200" y="585" />
              <mxPoint x="2200" y="825" />
            </Array>
            <mxPoint as="offset" />
          </mxGeometry>
        </mxCell>
        <mxCell id="VyZwU9iUYU2pjvRIfm-g-45" value="&lt;font style=&quot;font-size: 24px;&quot;&gt;WAIT_15&lt;/font&gt;" style="ellipse;whiteSpace=wrap;html=1;aspect=fixed;strokeWidth=3;" vertex="1" parent="1">
          <mxGeometry x="1880" y="525" width="120" height="120" as="geometry" />
        </mxCell>
        <mxCell id="VyZwU9iUYU2pjvRIfm-g-57" value="&lt;font style=&quot;font-size: 18px;&quot;&gt;SINGLE_BYTE_VALID&lt;/font&gt;" style="edgeStyle=orthogonalEdgeStyle;rounded=0;orthogonalLoop=1;jettySize=auto;html=1;entryX=0.5;entryY=1;entryDx=0;entryDy=0;strokeWidth=3;" edge="1" parent="1" source="VyZwU9iUYU2pjvRIfm-g-46" target="VyZwU9iUYU2pjvRIfm-g-45">
          <mxGeometry relative="1" as="geometry" />
        </mxCell>
        <mxCell id="VyZwU9iUYU2pjvRIfm-g-46" value="&lt;font style=&quot;font-size: 24px;&quot;&gt;BYTE_TX&lt;/font&gt;" style="ellipse;whiteSpace=wrap;html=1;aspect=fixed;strokeWidth=3;" vertex="1" parent="1">
          <mxGeometry x="1880" y="765" width="120" height="120" as="geometry" />
        </mxCell>
        <mxCell id="VyZwU9iUYU2pjvRIfm-g-58" value="&lt;font style=&quot;font-size: 18px;&quot;&gt;CS_HIGH_SET&lt;/font&gt;" style="edgeStyle=orthogonalEdgeStyle;rounded=0;orthogonalLoop=1;jettySize=auto;html=1;entryX=0.5;entryY=1;entryDx=0;entryDy=0;exitX=0;exitY=0.5;exitDx=0;exitDy=0;strokeWidth=3;" edge="1" parent="1" source="VyZwU9iUYU2pjvRIfm-g-47" target="VyZwU9iUYU2pjvRIfm-g-48">
          <mxGeometry x="0.4706" relative="1" as="geometry">
            <mxPoint x="1519.999999999999" y="825" as="sourcePoint" />
            <Array as="points">
              <mxPoint x="1440" y="825" />
            </Array>
            <mxPoint y="1" as="offset" />
          </mxGeometry>
        </mxCell>
        <mxCell id="VyZwU9iUYU2pjvRIfm-g-47" value="&lt;font style=&quot;font-size: 24px;&quot;&gt;CS_HIGH&lt;/font&gt;" style="ellipse;whiteSpace=wrap;html=1;aspect=fixed;strokeWidth=3;" vertex="1" parent="1">
          <mxGeometry x="1600" y="765" width="120" height="120" as="geometry" />
        </mxCell>
        <mxCell id="VyZwU9iUYU2pjvRIfm-g-59" value="&lt;font style=&quot;font-size: 18px;&quot;&gt;WAIT_25_US_DONE&lt;/font&gt;" style="edgeStyle=orthogonalEdgeStyle;rounded=0;orthogonalLoop=1;jettySize=auto;html=1;entryX=0.5;entryY=1;entryDx=0;entryDy=0;strokeWidth=3;" edge="1" parent="1" source="VyZwU9iUYU2pjvRIfm-g-48" target="VyZwU9iUYU2pjvRIfm-g-49">
          <mxGeometry relative="1" as="geometry" />
        </mxCell>
        <mxCell id="VyZwU9iUYU2pjvRIfm-g-48" value="&lt;font style=&quot;font-size: 24px;&quot;&gt;WAIT_25&lt;/font&gt;" style="ellipse;whiteSpace=wrap;html=1;aspect=fixed;strokeWidth=3;" vertex="1" parent="1">
          <mxGeometry x="1380" y="525" width="120" height="120" as="geometry" />
        </mxCell>
        <mxCell id="VyZwU9iUYU2pjvRIfm-g-60" value="&lt;font style=&quot;font-size: 18px;&quot;&gt;FETCH&lt;/font&gt;" style="edgeStyle=orthogonalEdgeStyle;rounded=0;orthogonalLoop=1;jettySize=auto;html=1;entryX=0;entryY=0.5;entryDx=0;entryDy=0;strokeWidth=3;" edge="1" parent="1" source="VyZwU9iUYU2pjvRIfm-g-49" target="VyZwU9iUYU2pjvRIfm-g-43">
          <mxGeometry relative="1" as="geometry">
            <Array as="points">
              <mxPoint x="1650" y="185" />
              <mxPoint x="1650" y="185" />
            </Array>
          </mxGeometry>
        </mxCell>
        <mxCell id="VyZwU9iUYU2pjvRIfm-g-49" value="&lt;font style=&quot;font-size: 24px;&quot;&gt;DONE&lt;/font&gt;" style="ellipse;whiteSpace=wrap;html=1;aspect=fixed;strokeWidth=3;" vertex="1" parent="1">
          <mxGeometry x="1380" y="125" width="120" height="120" as="geometry" />
        </mxCell>
        <mxCell id="VyZwU9iUYU2pjvRIfm-g-62" value="&lt;font style=&quot;font-size: 48px;&quot;&gt;&lt;b style=&quot;&quot;&gt;&lt;i style=&quot;&quot;&gt;State Flow&lt;/i&gt;&lt;/b&gt;&lt;/font&gt;" style="text;html=1;align=center;verticalAlign=middle;resizable=0;points=[];autosize=1;strokeColor=none;fillColor=none;" vertex="1" parent="1">
          <mxGeometry x="1550" y="255" width="260" height="70" as="geometry" />
        </mxCell>
        <mxCell id="VyZwU9iUYU2pjvRIfm-g-63" value="&lt;font style=&quot;font-size: 48px;&quot;&gt;&lt;b style=&quot;&quot;&gt;&lt;i style=&quot;&quot;&gt;Data Flow&lt;/i&gt;&lt;/b&gt;&lt;/font&gt;" style="text;html=1;align=center;verticalAlign=middle;resizable=0;points=[];autosize=1;strokeColor=none;fillColor=none;" vertex="1" parent="1">
          <mxGeometry x="60" y="105" width="250" height="70" as="geometry" />
        </mxCell>
        <mxCell id="v0cqLz6qlgyinotiR4zR-1" value="&lt;font style=&quot;font-size: 18px;&quot;&gt;CS_LOW&lt;/font&gt;&lt;div&gt;&lt;font style=&quot;font-size: 18px;&quot;&gt;CS_HIGH&lt;/font&gt;&lt;/div&gt;" style="endArrow=classic;html=1;rounded=0;exitX=0.183;exitY=0.99;exitDx=0;exitDy=0;exitPerimeter=0;entryX=1;entryY=0.5;entryDx=0;entryDy=0;strokeWidth=3;align=left;" edge="1" parent="1" source="VyZwU9iUYU2pjvRIfm-g-1" target="VyZwU9iUYU2pjvRIfm-g-2">
          <mxGeometry x="-0.1064" y="-31" width="50" height="50" relative="1" as="geometry">
            <mxPoint x="10" y="450" as="sourcePoint" />
            <mxPoint x="60" y="400" as="targetPoint" />
            <Array as="points">
              <mxPoint x="50" y="520" />
            </Array>
            <mxPoint as="offset" />
          </mxGeometry>
        </mxCell>
      </root>
    </mxGraphModel>
  </diagram>
  <diagram id="medcIREblcqp7uSUxwuA" name="페이지-2">
    <mxGraphModel dx="1050" dy="621" grid="1" gridSize="10" guides="1" tooltips="1" connect="1" arrows="1" fold="1" page="1" pageScale="1" pageWidth="827" pageHeight="1169" math="0" shadow="0">
      <root>
        <mxCell id="0" />
        <mxCell id="1" parent="0" />
        <mxCell id="jUVd__cCCJHZ_cUfDo0p-30" value="" style="rounded=1;whiteSpace=wrap;html=1;fillColor=none;strokeWidth=5;" vertex="1" parent="1">
          <mxGeometry x="80" y="120" width="680" height="400" as="geometry" />
        </mxCell>
        <mxCell id="jUVd__cCCJHZ_cUfDo0p-1" value="0" style="rounded=1;whiteSpace=wrap;html=1;strokeWidth=3;" vertex="1" parent="1">
          <mxGeometry x="240" y="200" width="120" height="40" as="geometry" />
        </mxCell>
        <mxCell id="jUVd__cCCJHZ_cUfDo0p-2" value="0" style="rounded=1;whiteSpace=wrap;html=1;strokeWidth=3;" vertex="1" parent="1">
          <mxGeometry x="360" y="200" width="120" height="40" as="geometry" />
        </mxCell>
        <mxCell id="jUVd__cCCJHZ_cUfDo0p-3" value="DONE, FETCH, VALID" style="rounded=1;whiteSpace=wrap;html=1;strokeWidth=3;" vertex="1" parent="1">
          <mxGeometry x="480" y="200" width="120" height="40" as="geometry" />
        </mxCell>
        <mxCell id="jUVd__cCCJHZ_cUfDo0p-4" value="[7 : 0] CMD" style="rounded=1;whiteSpace=wrap;html=1;strokeWidth=3;" vertex="1" parent="1">
          <mxGeometry x="600" y="200" width="120" height="40" as="geometry" />
        </mxCell>
        <mxCell id="jUVd__cCCJHZ_cUfDo0p-5" value="&lt;font style=&quot;font-size: 18px;&quot;&gt;SLV_REG_0&lt;/font&gt;" style="text;html=1;align=center;verticalAlign=middle;whiteSpace=wrap;rounded=0;strokeWidth=0;" vertex="1" parent="1">
          <mxGeometry x="120" y="200" width="80" height="40" as="geometry" />
        </mxCell>
        <mxCell id="jUVd__cCCJHZ_cUfDo0p-6" value="31" style="text;html=1;align=center;verticalAlign=middle;whiteSpace=wrap;rounded=0;strokeWidth=3;" vertex="1" parent="1">
          <mxGeometry x="200" y="160" width="80" height="40" as="geometry" />
        </mxCell>
        <mxCell id="jUVd__cCCJHZ_cUfDo0p-7" value="0" style="text;html=1;align=center;verticalAlign=middle;whiteSpace=wrap;rounded=0;strokeWidth=3;" vertex="1" parent="1">
          <mxGeometry x="680" y="160" width="80" height="40" as="geometry" />
        </mxCell>
        <mxCell id="jUVd__cCCJHZ_cUfDo0p-15" value="[7 : 0]&amp;nbsp;PARAM1" style="rounded=1;whiteSpace=wrap;html=1;strokeWidth=3;" vertex="1" parent="1">
          <mxGeometry x="240" y="280" width="120" height="40" as="geometry" />
        </mxCell>
        <mxCell id="jUVd__cCCJHZ_cUfDo0p-16" value="[7 : 0]&amp;nbsp;PARAM2" style="rounded=1;whiteSpace=wrap;html=1;strokeWidth=3;" vertex="1" parent="1">
          <mxGeometry x="360" y="280" width="120" height="40" as="geometry" />
        </mxCell>
        <mxCell id="jUVd__cCCJHZ_cUfDo0p-17" value="[7 : 0]&amp;nbsp;PARAM3" style="rounded=1;whiteSpace=wrap;html=1;strokeWidth=3;" vertex="1" parent="1">
          <mxGeometry x="480" y="280" width="120" height="40" as="geometry" />
        </mxCell>
        <mxCell id="jUVd__cCCJHZ_cUfDo0p-18" value="[7 : 0] PARAM4" style="rounded=1;whiteSpace=wrap;html=1;strokeWidth=3;" vertex="1" parent="1">
          <mxGeometry x="600" y="280" width="120" height="40" as="geometry" />
        </mxCell>
        <mxCell id="jUVd__cCCJHZ_cUfDo0p-19" value="&lt;font style=&quot;font-size: 18px;&quot;&gt;SLV_REG_1&lt;/font&gt;" style="text;html=1;align=center;verticalAlign=middle;whiteSpace=wrap;rounded=0;strokeWidth=0;" vertex="1" parent="1">
          <mxGeometry x="120" y="280" width="80" height="40" as="geometry" />
        </mxCell>
        <mxCell id="jUVd__cCCJHZ_cUfDo0p-20" value="[7 : 0]&amp;nbsp;smpXLowByte" style="rounded=1;whiteSpace=wrap;html=1;strokeWidth=3;" vertex="1" parent="1">
          <mxGeometry x="240" y="360" width="120" height="40" as="geometry" />
        </mxCell>
        <mxCell id="jUVd__cCCJHZ_cUfDo0p-21" value="[7 : 0]&amp;nbsp;smpXHighByte" style="rounded=1;whiteSpace=wrap;html=1;strokeWidth=3;" vertex="1" parent="1">
          <mxGeometry x="360" y="360" width="120" height="40" as="geometry" />
        </mxCell>
        <mxCell id="jUVd__cCCJHZ_cUfDo0p-22" value="[7 : 0] smpYLowByte" style="rounded=1;whiteSpace=wrap;html=1;strokeWidth=3;" vertex="1" parent="1">
          <mxGeometry x="480" y="360" width="120" height="40" as="geometry" />
        </mxCell>
        <mxCell id="jUVd__cCCJHZ_cUfDo0p-23" value="[7 : 0] smpYHighByte" style="rounded=1;whiteSpace=wrap;html=1;strokeWidth=3;" vertex="1" parent="1">
          <mxGeometry x="600" y="360" width="120" height="40" as="geometry" />
        </mxCell>
        <mxCell id="jUVd__cCCJHZ_cUfDo0p-24" value="&lt;font style=&quot;font-size: 18px;&quot;&gt;SLV_REG_2&lt;/font&gt;" style="text;html=1;align=center;verticalAlign=middle;whiteSpace=wrap;rounded=0;strokeWidth=0;" vertex="1" parent="1">
          <mxGeometry x="120" y="360" width="80" height="40" as="geometry" />
        </mxCell>
        <mxCell id="jUVd__cCCJHZ_cUfDo0p-25" value="0" style="rounded=1;whiteSpace=wrap;html=1;strokeWidth=3;" vertex="1" parent="1">
          <mxGeometry x="240" y="440" width="120" height="40" as="geometry" />
        </mxCell>
        <mxCell id="jUVd__cCCJHZ_cUfDo0p-26" value="[7 : 0]&amp;nbsp;fsButton" style="rounded=1;whiteSpace=wrap;html=1;strokeWidth=3;" vertex="1" parent="1">
          <mxGeometry x="360" y="440" width="120" height="40" as="geometry" />
        </mxCell>
        <mxCell id="jUVd__cCCJHZ_cUfDo0p-27" value="[7 : 0] AdditionalLowByte" style="rounded=1;whiteSpace=wrap;html=1;strokeWidth=3;" vertex="1" parent="1">
          <mxGeometry x="480" y="440" width="120" height="40" as="geometry" />
        </mxCell>
        <mxCell id="jUVd__cCCJHZ_cUfDo0p-28" value="[7 : 0] AdditionalHighByte" style="rounded=1;whiteSpace=wrap;html=1;strokeWidth=3;" vertex="1" parent="1">
          <mxGeometry x="600" y="440" width="120" height="40" as="geometry" />
        </mxCell>
        <mxCell id="jUVd__cCCJHZ_cUfDo0p-29" value="&lt;font style=&quot;font-size: 18px;&quot;&gt;SLV_REG_3&lt;/font&gt;" style="text;html=1;align=center;verticalAlign=middle;whiteSpace=wrap;rounded=0;strokeWidth=0;" vertex="1" parent="1">
          <mxGeometry x="120" y="440" width="80" height="40" as="geometry" />
        </mxCell>
        <mxCell id="jUVd__cCCJHZ_cUfDo0p-31" value="&lt;font style=&quot;font-size: 18px;&quot;&gt;&lt;b&gt;&lt;i&gt;Slave Register Map&lt;/i&gt;&lt;/b&gt;&lt;/font&gt;" style="text;html=1;align=center;verticalAlign=middle;whiteSpace=wrap;rounded=0;" vertex="1" parent="1">
          <mxGeometry x="319" y="130" width="190" height="30" as="geometry" />
        </mxCell>
      </root>
    </mxGraphModel>
  </diagram>
</mxfile>
